<?xml version="1.0" encoding="utf-8"?>
<!-- Generator: Adobe Illustrator 19.0.0, SVG Export Plug-In . SVG Version: 6.00 Build 0)  -->
<svg version="1.1" id="Capa_1" xmlns="http://www.w3.org/2000/svg" xmlns:xlink="http://www.w3.org/1999/xlink" x="0px" y="0px"
	 viewBox="-146 387 302.2 68.9" style="enable-background:new -146 387 302.2 68.9;" xml:space="preserve">
<g id="XMLID_1673_">
	<path id="XMLID_1689_" d="M-141.4,387H-83c2.5,0,4.6,2.1,4.6,4.6l0,0c0,2.5-2.1,4.6-4.6,4.6h-58.4c-2.5,0-4.6-2-4.6-4.6l0,0
		C-146,389.1-143.9,387-141.4,387z"/>
	<path id="XMLID_1688_" d="M93.9,419.3h53.4v-9.9H93.9c-2,0-4-1.4-4.6-3.2V391c0.3-2.2,2.3-4,4.6-4h57.6c2.5,0,4.6,2.1,4.6,4.6l0,0
		c0,2.5-2.1,4.6-4.6,4.6H98.1v4h53.4c2.3,0,4.1,1.6,4.5,3.8c0.1,7,0,14.1,0,21.1c-0.5,2-2.3,3.4-4.5,3.4H93.9
		c-2.5,0-4.6-2.1-4.6-4.6l0,0C89.3,421.4,91.4,419.3,93.9,419.3z"/>
	<path id="XMLID_1687_" d="M78.8,387h0.9c2.3,0,4.1,1.9,4.1,4.1v33.3c0,2.3-1.9,4.1-4.1,4.1h-0.9c-2.3,0-4.1-1.9-4.1-4.1v-33.2
		C74.6,388.9,76.5,387,78.8,387z"/>
	<path id="XMLID_1686_" d="M69.1,391.2v33.3c0,2.3-1.9,4.1-4.1,4.1c-0.8,0-1.6,0-2.4,0c-23.2-0.2-61-2.2-61.5-37.5
		c0.1-5.5,9.2-5.5,9.2,0c-0.1,17.5,14.5,28.3,49.7,28.4v-28.3C59.9,385.6,69.1,385.6,69.1,391.2z"/>
	<path id="XMLID_1685_" d="M-136.8,419.3H-83c2.5,0,4.6,2.1,4.6,4.6l0,0c0,2.5-2.1,4.6-4.6,4.6h-58.4l0,0l0,0h-0.1l0,0h-0.1l0,0
		h-0.1l0,0h-0.1l0,0h-0.1l0,0h-0.1l0,0h-0.1l0,0h-0.1l0,0h-0.1l0,0h-0.1l0,0h-0.1l0,0h-0.1l0,0h-0.1l0,0h-0.1l0,0h-0.1l0,0h-0.1l0,0
		h-0.1l0,0h-0.1l0,0h-0.1l0,0c0,0-0.1,0-0.1-0.1l0,0c0,0-0.1,0-0.1-0.1c-1.4-0.8-2.3-2.3-2.3-4l0,0l0,0v-19.5v-0.1v-0.1l0,0
		c0-2.5,2.1-4.6,4.6-4.6h30.5c2.5,0,4.6,2.1,4.6,4.6l0,0c0,2.5-2.1,4.6-4.6,4.6h-26.1V419.3z"/>
	<path id="XMLID_1682_" d="M-26.1,404.8l12.9,7.6v-16.5h-50.9v23.8h45.2l-11.8-6.9C-35.5,409.9-30.9,402-26.1,404.8L-26.1,404.8z
		 M-4.3,417.6l15.4,9.1c4.8,2.8,0.2,10.7-4.6,7.9L-6,427.3c-0.9,0.8-2.1,1.3-3.3,1.3h-58.8c-2.8,0-5-2.2-5-5V392c0-2.8,2.2-5,5-5
		h58.8c2.8,0,5,2.3,5,5V417.6z"/>
	<path id="XMLID_1674_" d="M-121,443.9h-9.4v3.1h9c1.4,0,2.4,0.2,2.9,0.7s0.7,1.4,0.7,2.7v2c0,1.3-0.2,2.2-0.7,2.7s-1.4,0.7-2.9,0.7
		h-8.9c-1.4,0-2.4-0.2-2.9-0.7s-0.7-1.4-0.7-2.7V452l3-0.6v1.7h10.2v-3.3h-9c-1.4,0-2.3-0.2-2.8-0.7s-0.7-1.4-0.7-2.7v-1.6
		c0-1.3,0.2-2.2,0.7-2.7s1.4-0.7,2.8-0.7h8.2c1.4,0,2.3,0.2,2.8,0.7s0.8,1.3,0.8,2.5v0.3l-3,0.7L-121,443.9L-121,443.9z M-60.2,444
		v11.9h-3.4V444h-6.6v-2.6h16.6v2.6H-60.2L-60.2,444z M-5.9,444.8c0-1.3,0.2-2.2,0.7-2.7s1.4-0.7,2.8-0.7H8.2c1.4,0,2.3,0.2,2.8,0.7
		s0.7,1.4,0.7,2.7v7.6c0,1.3-0.2,2.2-0.7,2.7s-1.4,0.7-2.8,0.7H-2.4c-1.4,0-2.3-0.2-2.8-0.7s-0.7-1.4-0.7-2.7V444.8L-5.9,444.8z
		 M-2.5,453.2H8.6V444H-2.5V453.2L-2.5,453.2z M73.7,443.9h-7.5v4h7.5c0.6,0,1-0.1,1.2-0.3c0.2-0.2,0.3-0.5,0.3-0.9V445
		c0-0.4-0.1-0.7-0.3-0.9C74.7,444,74.3,443.9,73.7,443.9L73.7,443.9z M62.9,455.9v-14.5h12.3c1.1,0,2,0.2,2.5,0.7
		c0.5,0.4,0.8,1.2,0.8,2.1v3.4c0,1-0.3,1.7-0.8,2.1s-1.3,0.7-2.5,0.7h-1.9l6.7,5.5h-4.8l-5.8-5.5h-3.2v5.5H62.9L62.9,455.9z
		 M129.2,455.9v-14.5H144v2.5h-11.4v3.2h6.7v2.5h-6.7v3.6h11.5v2.7H129.2z"/>
</g>
</svg>
