<?xml version="1.0" encoding="utf-8"?>
<!-- Generator: Adobe Illustrator 19.0.0, SVG Export Plug-In . SVG Version: 6.00 Build 0)  -->
<svg version="1.1" id="Capa_1" xmlns="http://www.w3.org/2000/svg" xmlns:xlink="http://www.w3.org/1999/xlink" x="0px" y="0px"
	 viewBox="-132 387.7 329.6 66.2" style="enable-background:new -132 387.7 329.6 66.2;" xml:space="preserve">
<g id="XMLID_969_">
	<path id="XMLID_1639_" d="M62.3,424.7H42v4.3h20.3c1.2,0,2.2-1,2.2-2.2l0,0C64.4,425.7,63.4,424.7,62.3,424.7z"/>
	<path id="XMLID_1640_" d="M102,412.6H83.8c-1.2,0-2.2,1-2.2,2.2v11.9c0,1.2,1,2.2,2.2,2.2H102c1.2,0,2.2-1,2.2-2.2v-11.9
		C104.2,413.6,103.2,412.6,102,412.6z"/>
	<path id="XMLID_1643_" d="M-132,387.7v66.2h329.6v-66.2H-132z M-48.4,434.1H-56v-9.3h-22.6v9.3h-7.7v-26.6h7.7v10.1H-56v-10.1h7.7
		L-48.4,434.1L-48.4,434.1z M-15.9,434.1v-7.2v-0.1v-2h-22.7v9.4h-7.6v-6.6V414c0-3.6,3-6.6,6.6-6.6h24.7c3.6,0,6.6,3,6.6,6.6v13.5
		l0.1,6.6C-8.2,434.1-15.9,434.1-15.9,434.1z M32,427.4v6.8h-8.1v-7c0-0.1,0-0.2,0-0.2l0,0c0-1.2-1-2.2-2.2-2.2H1.4v2.2l0,0v7.2H-6
		v-1.6l0,0v-11.2l0,0v-3.8h27.7c1.2,0,2.2-1,2.2-2.2l0,0c0-1.2-1-2.2-2.2-2.2H0.1l-6-5.8h31.3c3.7,0,6.7,3.1,6.7,6.8
		c0,3.1-2.1,5.7-4.8,6.6C29.9,421.6,32,424.3,32,427.4z M72.5,427.4c0,3.7-3,6.8-6.7,6.8H34.4v-1.6l0,0v-11.2l0,0v-3.8h27.7
		c1.2,0,2.2-1,2.2-2.2l0,0c0-1.2-1-2.2-2.2-2.2H40.6l-6-5.8h31.2c3.7,0,6.7,3.1,6.7,6.8c0,3.1-2.1,5.7-4.8,6.6
		C70.5,421.6,72.5,424.3,72.5,427.4z M111.8,427.5c0,3.6-3,6.6-6.6,6.6H80.5c-3.6,0-6.6-3-6.6-6.6V414c0-3.6,3-6.6,6.6-6.6h24.7
		c3.6,0,6.6,3,6.6,6.6V427.5z M151.9,427.4v6.8h-8.1v-7c0-0.1,0-0.2,0-0.2l0,0c0-1.2-1-2.2-2.2-2.2h-20.3v2.2l0,0v7.2h-7.4v-1.6l0,0
		v-11.2l0,0v-3.8h27.7c1.2,0,2.2-1,2.2-2.2l0,0c0-1.2-1-2.2-2.2-2.2h-19.9l-6-5.8h29.5c3.7,0,6.7,3.1,6.7,6.8c0,3.1-2.1,5.7-4.8,6.6
		C149.9,421.6,151.9,424.3,151.9,427.4z"/>
	<path id="XMLID_1649_" d="M-18.1,412.6h-18.2c-1.2,0-2.2,1-2.2,2.2v2.7h22.6v-2.7C-15.9,413.6-16.9,412.6-18.1,412.6z"/>
</g>
</svg>
