<?xml version="1.0" encoding="utf-8"?>
<!-- Generator: Adobe Illustrator 19.0.0, SVG Export Plug-In . SVG Version: 6.00 Build 0)  -->
<svg version="1.1" id="Capa_1" xmlns="http://www.w3.org/2000/svg" xmlns:xlink="http://www.w3.org/1999/xlink" x="0px" y="0px"
	 viewBox="-147 389.4 299.9 62.5" style="enable-background:new -147 389.4 299.9 62.5;" xml:space="preserve">
<path id="XMLID_1652_" d="M102,450.3c-2.1-0.9-4.1-2.3-6.1-4.1c-2-1.9-3.4-4-4.4-6.3c-0.3-1-0.6-1.8-0.8-2.5
	c-0.4-1.5-0.6-3.2-0.6-4.8v-12.3c-0.5,0.6-1.1,1.3-1.7,1.9c-1.7,1.7-3.8,3.2-6.2,4.1c-1,0.4-2.1,0.7-3.2,1s-2.5,0.5-4.2,0.5h-29v24
	H31.4v-40.1H17.9v-3.2c0-0.6-0.1-1.2-0.4-1.8c-0.2-0.6-0.6-1.1-1.2-1.6l-1.5-1l-1.7-0.4H2.9v48h-14v-48v-14.4h14h10.2
	c2.8,0,5.2,0.5,7.3,1.4c2.1,0.7,4.2,2.2,6.3,4.2c1.7,1.7,3.1,3.8,4.1,6.2c0.2,0.5,0.4,0.9,0.5,1.4v-13.2h43.4c1.3,0,2.6,0.1,3.8,0.3
	s2.3,0.6,3.6,1.1c2.1,0.8,4.2,2.2,6.3,4.2c1.4,1.4,2.6,3.1,3.6,5.1c0.9-1.7,2.1-3.4,3.7-5.1c1.7-1.7,3.8-3.1,6.2-4.1
	c1.2-0.5,2.4-0.9,3.5-1.2c1.1-0.2,2.4-0.4,3.8-0.4h24.4c2.8,0,5.1,0.6,7.3,1.4c2,0.8,4.2,2.2,6.3,4.2c1.7,1.7,3.1,3.8,4.1,6.2
	c0.5,1.2,0.9,2.4,1.2,3.5c0.2,1.1,0.4,2.4,0.4,3.8v5v14.4h-48.3v4.8c0,0.6,0.1,1.2,0.4,1.7c0.2,0.5,0.6,1.1,1.2,1.6l1.5,1l1.7,0.4
	h43v14.4h-43C106.6,451.7,104.1,451.3,102,450.3L102,450.3z M-127.8,427.7c-1.3,0-2.6-0.1-3.8-0.3c-1.2-0.2-2.4-0.6-3.6-1.1
	c-2.1-0.9-4.2-2.3-6.1-4.2c-1.9-2-3.3-4.1-4.3-6.3c-0.9-2.3-1.4-4.7-1.4-7.3c0-1.3,0.1-2.6,0.3-3.8c0.2-1.2,0.6-2.4,1.1-3.6
	c0.9-2.1,2.3-4.2,4.2-6.2c2-1.9,4.1-3.3,6.4-4.2c2.2-0.9,4.6-1.4,7.2-1.4h34.7h12.3h50.1v14.4h-24v48h-14.4v-48h-11.7h-12.3h-34.7
	c-0.7,0-1.3,0.1-1.9,0.4c-0.6,0.2-1.2,0.5-1.6,1.1l-1,1.5l-0.3,1.8c-0.1,0.7,0.1,1.3,0.4,1.9c0.2,0.6,0.5,1.2,1.1,1.6l1.6,1.1
	l1.7,0.3h27.5c1.3,0,2.6,0.1,3.8,0.3c1.2,0.2,2.4,0.6,3.6,1.1c2.2,0.9,4.2,2.3,6.2,4.3c2,1.9,3.4,4.1,4.3,6.4s1.4,4.8,1.4,7.4
	s-0.5,5-1.5,7.4c-0.8,2.3-2.2,4.4-4.1,6.2c-1.9,1.8-4,3.3-6.3,4.2c-2.4,0.9-4.9,1.3-7.3,1.3H-147v-14.6h46.6c0.7,0,1.4-0.1,1.9-0.4
	c0.5-0.2,1-0.6,1.5-1c0.4-0.4,0.8-1,1.2-1.7l0.3-1.7c0-0.7-0.1-1.4-0.4-1.9c-0.2-0.6-0.6-1-1-1.5c-0.4-0.4-1-0.8-1.7-1.2l-1.8-0.3
	L-127.8,427.7L-127.8,427.7z M45.9,413.3h29l1.7-0.3c0.6-0.1,1.1-0.6,1.6-1.1c0.4-0.4,1-0.8,1.1-1.5l0.4-1.9l-0.3-1.7
	c-0.1-0.6-0.5-1.2-1.1-1.6l-1.5-1l-1.9-0.4h-29L45.9,413.3L45.9,413.3z M-28,451.7v-62.4h14.4v62.4H-28L-28,451.7z M138.4,413.3
	v-4.8c0-0.6-0.1-1.2-0.4-1.8c-0.2-0.6-0.6-1.2-1.2-1.6l-1.5-1l-1.7-0.4h-24.4c-0.4,0-0.9,0.1-1.4,0.4l-1.6,1.1
	c-0.5,0.4-0.9,0.9-1.2,1.5l-0.5,1.7v4.9L138.4,413.3L138.4,413.3z"/>
</svg>
