<?xml version="1.0" encoding="utf-8"?>
<!-- Generator: Adobe Illustrator 19.0.0, SVG Export Plug-In . SVG Version: 6.00 Build 0)  -->
<svg version="1.1" id="Capa_1" xmlns="http://www.w3.org/2000/svg" xmlns:xlink="http://www.w3.org/1999/xlink" x="0px" y="0px"
	 viewBox="-166 368.1 261.9 106.8" style="enable-background:new -166 368.1 261.9 106.8;" xml:space="preserve">
<g id="XMLID_1658_">
	<path id="XMLID_1667_" d="M-69,435.2l10.7-23.7c0.2-0.3,0.2-0.6,0.2-0.7c0-1-0.7-1.5-2.1-1.5c-1.8,0-3,0.8-3.7,2.3l-10.3,23
		c-0.6,1.2-0.8,2.3-0.8,3.4s0.5,1.6,1.4,1.6C-71.9,439.6-70.4,438.1-69,435.2L-69,435.2z M77.9,395.7l7.7-17.3c0-0.2,0-0.3,0.1-0.5
		c0-0.8-0.6-1.2-1.8-1.2c-1.3,0-2.2,0.6-2.8,1.9c-2.7,6.1-6.8,15.2-12.2,27.4C72.2,405.3,75.2,401.8,77.9,395.7L77.9,395.7z
		 M82.8,429c-2.3,5.1-6.6,9.5-13.1,13.1c-5.9,3.3-11.5,5-16.9,5c-3.8,0-7-1-9.6-3c-1.3-1-2.4-2.2-3.1-3.6c-0.7,0.4-1.5,0.9-2.3,1.3
		c-6.6,3.6-12.3,5.3-17.1,5.3h-9.2c-8.7,0-13.1-2.9-13.1-8.6c0-3,1.1-7,3.4-11.9l3.9-8.7c1.9-4.4,4.6-8,7.9-10.9
		c3.7-3.2,7.7-4.9,12-4.9h12c5.2,0,7.8,2,7.8,5.9c0,2.4-1.4,6.8-4.2,13.2c-2,4.6-6,6.9-12,6.9H17l-2.9,6.4c-0.6,1.3-0.8,2.4-0.8,3.4
		c0,1.2,0.5,1.8,1.5,1.8h3.5c7.4,0,14.3-2,20.9-6.1c0.1-0.7,0.3-1.3,0.6-1.9l22.6-50.6c1.9-4.3,4.9-7.6,8.9-9.9
		c3.6-2.1,7.6-3.2,12-3.2c3,0,5.7,0.6,8.2,1.7c3,1.4,4.5,3.2,4.5,5.6c0,0.8-0.2,1.7-0.6,2.5l-7.9,17.7
		c-4.7,10.5-12.7,17.9-23.9,22.2l-6.2,14.2c-0.4,0.8-0.6,1.5-0.6,2.2c0,1.8,1.3,2.7,3.8,2.7c3.3,0,7-1.2,11-3.7s6.7-5.3,8.1-8.6
		L82.8,429L82.8,429z M25.4,421.4l4.5-9.9c0.1-0.3,0.1-0.6,0.1-0.7c0-1-0.7-1.5-2-1.5c-1.7,0-2.8,0.8-3.5,2.3l-4.5,9.8H25.4
		L25.4,421.4z M-1.2,426.6c-2.4,5.5-6.3,10.3-11.8,14.3c-5.7,4.3-11.2,6.4-16.6,6.4c-7.6,0-11.9-2.3-12.8-6.8
		c-0.5,0.3-1.1,0.6-1.6,0.9c-6.6,3.7-12.8,5.6-18.4,5.6c-2.6,0-4.1-1.2-4.5-3.6c-2.9,2.4-6.2,3.6-9.8,3.6c-7.5,0-11.7-2.2-12.7-6.6
		c-0.6,0.3-1.2,0.7-1.8,1c-6.7,3.8-12.8,5.7-18.5,5.7c-5.1,0-7.6-2.3-7.6-6.9c0-1.5,0.4-3.2,1.1-4.8l8.5-18.9
		c0.1-0.2,0.1-0.4,0.1-0.6c0-0.6-0.3-1.1-1-1.5c-0.6-0.4-1.3-0.7-1.9-0.7c-1,0-1.9,1-2.8,3c-3.9,8.7-10.3,15.4-19.2,20.1
		c-0.1,0.1-0.2,0.1-0.4,0.2c-1.9,1.6-4.2,3.1-6.9,4.5c-6.6,3.7-12.8,5.6-18.4,5.6c-2.4,0-4.3-0.7-5.7-2.1c-1.4-1.4-2.1-3.1-2.1-5.2
		c0-1.5,0.3-3.2,1.1-4.9l20.2-45.1h-12.4l4.4-9.6h12.3l5.2-11.9h17.6l-5.2,11.8h54.1l-4.4,9.6h-54.1l-20.1,45.2
		c-0.1,0.2-0.1,0.4-0.1,0.6c0,0.6,0.4,0.8,1.2,0.8c2.5,0,5.6-1.3,9.3-3.9c0.3-0.2,0.6-0.4,0.9-0.6l14.7-32.8l26,14.7
		c1.9,1.1,2.8,2.8,2.8,5.2c0,0.6-0.1,1.1-0.4,1.5l-5.3,12.1c-0.3,0.7-0.5,1.4-0.5,1.9c0,1.1,0.6,1.6,1.8,1.6c2.3,0,5-1.1,8.3-3.4
		c0.5-1.8,1.3-3.8,2.3-6.1l1.7-3.8c2.5-5.7,5.8-10.4,9.8-14.1c4.9-4.4,9.9-6.7,15.3-6.7c4,0,7,1.3,9.1,4l1.1-2.4h11.2l-5.3,12
		c-1.6,3.7-4.1,9.3-7.4,16.7c-0.3,0.7-0.5,1.4-0.5,1.9c0,1.1,0.6,1.6,1.8,1.6c2.2,0,4.9-1.1,8.1-3.3c0.6-1.8,1.3-3.8,2.3-6
		l10.1-22.8h15.8l-13.8,31c-0.6,1.3-0.8,2.5-0.8,3.5c0,1.1,0.5,1.7,1.5,1.7c1.7,0,3.2-1.5,4.5-4.6L-6,399.6L7.5,407L-1.2,426.6z"/>
	<path id="XMLID_1659_" d="M-158.1,468.9h1.9v0.6c0,1.2,0.3,2.1,0.8,2.7c0.6,0.6,1.4,0.9,2.4,0.9s1.7-0.3,2.3-0.9
		c0.6-0.6,0.8-1.4,0.8-2.4c0-0.8-0.2-1.5-0.5-1.9c-0.3-0.4-1.1-0.9-2.3-1.3c-0.3-0.1-0.7-0.3-1.2-0.4c-1.4-0.5-2.3-0.9-2.6-1.2
		c-0.5-0.4-0.8-0.9-1.1-1.5c-0.2-0.6-0.4-1.3-0.4-2.1c0-1.5,0.4-2.7,1.3-3.6c0.8-0.9,2-1.3,3.5-1.3c1.4,0,2.5,0.4,3.4,1.2
		c0.8,0.8,1.2,1.9,1.2,3.3c0,0,0,0.1,0,0.2s0,0.2,0,0.2h-1.8v-0.2c0-1-0.2-1.7-0.7-2.3c-0.5-0.5-1.2-0.8-2-0.8
		c-0.9,0-1.6,0.3-2.1,0.8c-0.6,0.6-0.8,1.3-0.8,2.2c0,0.8,0.2,1.5,0.5,1.9c0.4,0.5,1.1,0.9,2.3,1.3c0.1,0.1,0.4,0.1,0.6,0.2
		c1.8,0.7,2.9,1.2,3.3,1.5c0.4,0.4,0.8,0.9,1,1.5s0.3,1.3,0.3,2.1c0,1.7-0.5,3-1.4,3.9c-0.9,0.9-2.2,1.4-3.8,1.4
		c-1.6,0-2.9-0.5-3.7-1.4c-0.8-0.9-1.3-2.2-1.3-4c0-0.1,0-0.2,0-0.3C-158.1,469.1-158.1,469-158.1,468.9L-158.1,468.9z M-96.9,474.5
		v-15.7h-4.5V457h10.7v1.8h-4.2v15.7H-96.9L-96.9,474.5z M-41.9,465.7c0,2.8,0.3,4.8,0.8,5.8c0.5,1.1,1.5,1.6,2.8,1.6
		c1.3,0,2.3-0.5,2.8-1.6c0.5-1,0.8-3,0.8-5.9c0-2.9-0.3-4.8-0.8-5.9c-0.5-1-1.5-1.6-2.8-1.6s-2.2,0.5-2.8,1.6
		C-41.7,461-41.9,462.9-41.9,465.7L-41.9,465.7z M-44,465.7c0-3.3,0.4-5.6,1.3-7c0.9-1.4,2.3-2.1,4.3-2.1s3.4,0.7,4.3,2.1
		c0.9,1.4,1.3,3.8,1.3,7.1c0,3.3-0.4,5.6-1.3,7.1c-0.9,1.4-2.3,2.1-4.3,2.1s-3.4-0.7-4.3-2.2C-43.5,471.3-44,469-44,465.7L-44,465.7
		z M17.1,465h2.4c1.4,0,2.4-0.3,3-0.8s1-1.3,1-2.5c0-1.1-0.3-1.8-0.9-2.3c-0.6-0.5-1.5-0.7-2.8-0.7H17v6.3H17.1z M15.2,474.5V457
		h4.9c1.8,0,3.2,0.4,4,1.1c0.9,0.7,1.3,1.9,1.3,3.4c0,1.2-0.3,2.1-0.8,2.8c-0.5,0.7-1.4,1.2-2.5,1.5c1,0.1,1.7,0.4,2.2,0.9
		s0.8,1.4,0.9,2.5c0,0.4,0.1,1,0.1,1.8c0.1,1.9,0.4,3.1,0.9,3.5h-2.4c-0.2-0.4-0.4-1.4-0.5-2.9c0-0.8-0.1-1.3-0.1-1.8
		c-0.1-1.2-0.4-2-0.9-2.5c-0.5-0.4-1.4-0.7-2.8-0.7H17v7.8h-1.8V474.5z M73.9,474.5V457h8.7v1.8h-6.8v5.6h6.3v1.8h-6.3v6.5h6.8v1.8
		C82.6,474.5,73.9,474.5,73.9,474.5z"/>
</g>
</svg>
